<svg height="512pt" viewBox="0 0 512 512" width="512pt" xmlns="http://www.w3.org/2000/svg"><path d="m401.648438 170.179688c-23.4375-38.28125-56.214844-46.523438-79.582032-46.699219-19.835937-.144531-39.371094 5.519531-56.566406 16.371093l-9.5 5.949219-9.460938-5.925781c-17.238281-10.871094-36.820312-16.539062-56.605468-16.394531-23.371094.175781-56.144532 8.417969-79.582032 46.699219-18.890624 30.855468-19.414062 67.40625-1.429687 100.285156 13.546875 24.769531 34.203125 44.207031 54.183594 63.007812 3.449219 3.242188 92.894531 86.84375 92.894531 86.84375s89.445312-83.597656 92.894531-86.84375c19.976563-18.796875 40.636719-38.238281 54.183594-63.007812 17.980469-32.878906 17.460937-69.433594-1.429687-100.285156zm-24.890626 85.886718c-11.257812 20.585938-30.152343 38.363282-48.421874 55.558594-3.351563 3.152344-63.535157 58.972656-72.335938 67.226562-8.800781-8.253906-68.984375-64.074218-72.335938-67.230468-18.269531-17.191406-37.164062-34.96875-48.421874-55.554688-12.679688-23.1875-12.429688-48.785156.695312-70.222656 13.042969-21.304688 31.289062-32.195312 54.222656-32.363281.175782-.003907.351563-.003907.527344-.003907 13.863281 0 27.632812 4.066407 39.886719 11.796876l25.425781 15.925781 25.464844-15.949219c12.21875-7.707031 25.984375-11.773438 39.847656-11.773438.175781 0 .355469 0 .53125.003907 22.933594.171875 41.175781 11.058593 54.21875 32.363281 13.125 21.4375 13.378906 47.035156.695312 70.222656zm0 0"/><path d="m437.019531 74.980469c-48.351562-48.351563-112.640625-74.980469-181.019531-74.980469s-132.667969 26.628906-181.019531 74.980469c-48.351563 48.351562-74.980469 112.640625-74.980469 181.019531s26.628906 132.667969 74.980469 181.019531c48.351562 48.351563 112.640625 74.980469 181.019531 74.980469s132.667969-26.628906 181.019531-74.980469c48.351563-48.351562 74.980469-112.640625 74.980469-181.019531s-26.628906-132.667969-74.980469-181.019531zm-181.019531 407.019531c-124.617188 0-226-101.382812-226-226s101.382812-226 226-226 226 101.382812 226 226-101.382812 226-226 226zm0 0"/></svg>